<?xml version="1.0" standalone="no"?>
<!DOCTYPE svg PUBLIC "-//W3C//DTD SVG 20010904//EN"
 "http://www.w3.org/TR/2001/REC-SVG-20010904/DTD/svg10.dtd">
<svg version="1.0" xmlns="http://www.w3.org/2000/svg"
 width="200.000000pt" height="200.000000pt" viewBox="0 0 200.000000 200.000000"
 preserveAspectRatio="xMidYMid meet">

<g transform="translate(0.000000,200.000000) scale(0.100000,-0.100000)"
fill="#000000" stroke="none">
<path d="M880 1601 c0 -6 16 -11 35 -11 25 0 44 -8 60 -25 24 -23 25 -28 25
-175 0 -113 -3 -150 -12 -150 -7 0 -35 7 -62 15 -27 8 -81 15 -120 15 -183 0
-317 -84 -398 -248 l-43 -85 0 -116 c0 -105 3 -122 29 -185 33 -78 115 -170
182 -204 106 -54 271 -67 407 -33 42 11 90 27 106 36 l31 16 0 134 c0 73 4
145 9 158 10 26 55 47 102 47 16 0 29 5 29 10 0 6 -20 10 -44 10 -28 0 -52 7
-67 19 -23 18 -24 25 -27 169 l-3 151 89 -6 c49 -3 109 -3 134 1 109 16 188
113 188 228 0 97 -47 165 -145 210 -47 21 -65 23 -277 26 -159 3 -228 0 -228
-7z m403 -55 c93 -39 135 -177 85 -276 -32 -63 -77 -90 -147 -90 -108 0 -101
-14 -101 190 0 133 3 180 13 183 25 11 119 6 150 -7z m-320 -332 l37 -18 0
-167 c0 -153 -2 -168 -21 -193 -16 -21 -29 -26 -64 -26 -63 0 -64 -16 -2 -23
81 -10 87 -22 87 -187 l0 -138 -47 -19 c-32 -12 -74 -18 -128 -18 -70 0 -87 4
-134 30 -118 65 -191 214 -191 390 0 204 91 345 247 385 55 13 172 5 216 -16z"/>
<path d="M1600 895 c-7 -8 -17 -12 -24 -8 -7 4 -7 2 1 -7 9 -10 17 -8 39 9 17
13 21 21 12 21 -9 0 -21 -7 -28 -15z"/>
<path d="M1568 823 c-10 -2 -18 -9 -18 -13 0 -6 10 -6 24 0 15 5 27 5 35 -3 8
-8 11 -8 11 0 0 9 -27 26 -33 22 -1 -1 -10 -3 -19 -6z"/>
<path d="M1548 763 c12 -2 32 -2 45 0 12 2 2 4 -23 4 -25 0 -35 -2 -22 -4z"/>
<path d="M1515 713 c11 -2 26 -12 33 -21 13 -16 13 -15 10 3 -2 14 -12 21 -33
22 -18 1 -22 -1 -10 -4z"/>
<path d="M1500 670 c14 -11 32 -20 40 -20 8 0 0 9 -18 20 -41 25 -55 25 -22 0z"/>
<path d="M1470 621 c0 -5 7 -11 15 -15 8 -3 15 -1 15 3 0 5 -7 11 -15 15 -8 3
-15 1 -15 -3z"/>
<path d="M1456 595 c4 -10 0 -15 -12 -15 -16 0 -16 -2 -4 -10 8 -5 17 -5 20
-1 3 4 11 10 18 12 8 3 6 8 -8 16 -16 11 -18 10 -14 -2z"/>
<path d="M1410 574 c0 -13 18 -39 24 -34 2 3 -2 14 -10 24 -8 11 -14 16 -14
10z"/>
<path d="M1365 550 c-3 -6 1 -7 9 -4 18 7 21 14 7 14 -6 0 -13 -4 -16 -10z"/>
<path d="M1395 530 c3 -5 11 -10 16 -10 6 0 7 5 4 10 -3 6 -11 10 -16 10 -6 0
-7 -4 -4 -10z"/>
</g>
</svg>
