<?xml version="1.0" encoding="utf-8"?>
<!-- Generator: Adobe Illustrator 26.5.0, SVG Export Plug-In . SVG Version: 6.00 Build 0)  -->
<svg version="1.1" id="레이어_1" xmlns="http://www.w3.org/2000/svg" xmlns:xlink="http://www.w3.org/1999/xlink" x="0px"
	 y="0px" viewBox="0 0 152 50" style="enable-background:new 0 0 152 50;" xml:space="preserve">
<style type="text/css">
	.st0{fill:#FFFFFF;}
</style>
<g>
	<g>
		<path class="st0" d="M4.8,23.3V28c0,1,0.1,1.6,0.3,1.9c0.3,0.4,0.8,0.5,1.4,0.5h0.7v0.4H0v-0.4h0.6c0.7,0,1.2-0.2,1.5-0.7
			c0.2-0.2,0.2-0.8,0.2-1.8V17.5c0-1-0.1-1.6-0.3-1.9c-0.3-0.4-0.8-0.5-1.5-0.5H0v-0.4h6.2c1.5,0,2.7,0.1,3.6,0.4s1.6,0.8,2.2,1.5
			c0.6,0.7,0.9,1.5,0.9,2.5c0,1.3-0.5,2.4-1.4,3.2c-0.9,0.8-2.2,1.2-3.9,1.2c-0.4,0-0.8,0-1.3-0.1S5.4,23.4,4.8,23.3z M4.8,22.6
			c0.4,0.1,0.8,0.1,1.2,0.2s0.6,0.1,0.9,0.1c0.9,0,1.6-0.3,2.2-1c0.6-0.6,0.9-1.5,0.9-2.5c0-0.7-0.1-1.4-0.4-2s-0.7-1-1.3-1.4
			c-0.6-0.3-1.2-0.4-1.9-0.4c-0.4,0-1,0.1-1.6,0.2L4.8,22.6L4.8,22.6z"/>
		<path class="st0" d="M14.7,24c0,1.6,0.4,2.9,1.2,3.8c0.8,0.9,1.8,1.4,3,1.4c0.8,0,1.4-0.2,2-0.6c0.6-0.4,1-1.1,1.4-2l0.4,0.2
			c-0.2,1.1-0.7,2.1-1.5,3s-1.9,1.3-3.2,1.3c-1.4,0-2.6-0.5-3.5-1.5S13,27.2,13,25.5c0-1.9,0.5-3.3,1.5-4.4c1-1,2.3-1.6,3.8-1.6
			c1.3,0,2.4,0.4,3.2,1.2c0.8,0.8,1.2,1.9,1.2,3.2L14.7,24L14.7,24z M14.7,23.3h5.3c0-0.7-0.1-1.2-0.3-1.5c-0.2-0.4-0.5-0.8-0.9-1
			c-0.4-0.2-0.9-0.4-1.3-0.4c-0.7,0-1.3,0.3-1.9,0.8C15.1,21.7,14.8,22.4,14.7,23.3z"/>
		<path class="st0" d="M27.4,19.6v2.5c1-1.6,2-2.5,3-2.5c0.5,0,0.8,0.1,1.1,0.4s0.5,0.6,0.5,0.9c0,0.3-0.1,0.6-0.3,0.8
			c-0.2,0.2-0.5,0.3-0.8,0.3c-0.3,0-0.6-0.1-1-0.4c-0.4-0.3-0.6-0.4-0.8-0.4c-0.1,0-0.3,0.1-0.5,0.2c-0.4,0.3-0.8,0.9-1.2,1.6v5.2
			c0,0.6,0.1,1.1,0.2,1.4c0.1,0.2,0.3,0.4,0.6,0.5c0.3,0.1,0.7,0.2,1.2,0.2v0.4h-5.9v-0.4c0.6,0,1-0.1,1.3-0.3
			c0.2-0.1,0.4-0.3,0.4-0.6c0-0.1,0.1-0.5,0.1-1.2v-4.2c0-1.3,0-2-0.1-2.3s-0.1-0.4-0.3-0.5s-0.3-0.2-0.5-0.2
			c-0.3,0-0.5,0.1-0.9,0.2l-0.1-0.4l3.5-1.3H27.4z"/>
		<path class="st0" d="M37,20.8V28c0,1,0.1,1.7,0.3,1.9c0.3,0.4,0.7,0.5,1.2,0.5h1v0.4h-6.9v-0.4h0.5c0.3,0,0.6-0.1,0.9-0.2
			s0.5-0.4,0.6-0.6c0.1-0.3,0.2-0.8,0.2-1.6v-7.2h-2.2v-0.9h2.2v-0.7c0-1.1,0.2-2,0.5-2.8s0.9-1.4,1.7-1.8c0.8-0.5,1.6-0.7,2.5-0.7
			c0.9,0,1.7,0.3,2.4,0.8c0.5,0.4,0.7,0.8,0.7,1.2c0,0.2-0.1,0.5-0.3,0.7s-0.5,0.3-0.7,0.3c-0.2,0-0.4-0.1-0.6-0.2
			c-0.2-0.1-0.5-0.4-0.8-0.9c-0.3-0.4-0.6-0.7-0.8-0.9c-0.3-0.1-0.5-0.2-0.9-0.2c-0.4,0-0.7,0.1-1,0.3s-0.5,0.5-0.6,0.9
			c-0.1,0.4-0.2,1.5-0.2,3.2v0.8h3v0.9L37,20.8L37,20.8z"/>
		<path class="st0" d="M51.7,19.9v6.6c0,1.3,0,2,0.1,2.3s0.2,0.5,0.3,0.6s0.3,0.2,0.5,0.2c0.3,0,0.5-0.1,0.9-0.2l0.2,0.4l-3.4,1.4
			h-0.6v-2.3c-1,1-1.7,1.7-2.3,1.9c-0.5,0.3-1.1,0.4-1.6,0.4c-0.6,0-1.2-0.2-1.7-0.5c-0.5-0.4-0.8-0.8-1-1.4
			c-0.2-0.6-0.3-1.3-0.3-2.4v-4.9c0-0.5-0.1-0.9-0.2-1.1c-0.1-0.2-0.3-0.4-0.5-0.5c-0.2-0.1-0.7-0.2-1.2-0.1v-0.4h4v7.3
			c0,1,0.2,1.7,0.6,2c0.4,0.3,0.8,0.5,1.3,0.5c0.4,0,0.8-0.1,1.2-0.3c0.5-0.2,1-0.6,1.6-1.2V22c0-0.6-0.1-1-0.4-1.3
			s-0.7-0.3-1.5-0.4v-0.4L51.7,19.9L51.7,19.9z"/>
		<path class="st0" d="M57.8,21.9c0.8-0.8,1.3-1.2,1.5-1.4c0.4-0.3,0.8-0.5,1.2-0.7c0.4-0.2,0.9-0.2,1.3-0.2c0.7,0,1.3,0.2,1.9,0.6
			s0.9,1,1,1.7c0.9-1,1.6-1.6,2.2-1.9c0.6-0.3,1.2-0.5,1.8-0.5c0.6,0,1.2,0.1,1.6,0.5c0.5,0.3,0.8,0.8,1.1,1.5
			c0.2,0.5,0.3,1.2,0.3,2.2v4.7c0,0.7,0.1,1.1,0.2,1.4c0.1,0.2,0.2,0.3,0.5,0.5c0.2,0.1,0.6,0.2,1.1,0.2v0.4h-5.7v-0.4H68
			c0.5,0,0.9-0.1,1.2-0.3c0.2-0.1,0.3-0.3,0.4-0.6c0-0.1,0.1-0.5,0.1-1.2v-4.7c0-0.9-0.1-1.5-0.3-1.9c-0.3-0.5-0.8-0.8-1.6-0.8
			c-0.4,0-0.9,0.1-1.3,0.3s-1,0.6-1.6,1.2l0,0.1l0,0.5v5.2c0,0.8,0,1.2,0.1,1.4s0.2,0.3,0.5,0.5c0.2,0.1,0.7,0.2,1.2,0.2v0.4h-5.8
			v-0.4c0.6,0,1.1-0.1,1.3-0.2s0.4-0.4,0.5-0.6c0-0.1,0.1-0.5,0.1-1.2v-4.7c0-0.9-0.1-1.5-0.4-1.9c-0.4-0.5-0.9-0.8-1.5-0.8
			c-0.5,0-0.9,0.1-1.3,0.4c-0.7,0.4-1.2,0.7-1.6,1.2v5.9c0,0.7,0,1.2,0.2,1.4c0.1,0.2,0.3,0.4,0.5,0.5c0.2,0.1,0.6,0.2,1.2,0.2v0.4
			h-5.7v-0.4c0.5,0,0.9,0,1.1-0.2s0.4-0.3,0.5-0.5s0.2-0.7,0.2-1.4v-4.2c0-1.2,0-2-0.1-2.3c-0.1-0.3-0.2-0.4-0.3-0.5
			c-0.1-0.1-0.3-0.1-0.5-0.1c-0.2,0-0.5,0.1-0.8,0.2l-0.2-0.4l3.5-1.3h0.5V21.9z"/>
		<path class="st0" d="M75.5,24c0,1.6,0.4,2.9,1.2,3.8c0.8,0.9,1.8,1.4,2.9,1.4c0.8,0,1.4-0.2,2-0.6c0.6-0.4,1-1.1,1.4-2l0.4,0.2
			c-0.2,1.1-0.7,2.1-1.5,3s-1.9,1.3-3.2,1.3c-1.4,0-2.6-0.5-3.5-1.5s-1.5-2.4-1.5-4.1c0-1.9,0.5-3.3,1.5-4.4c1-1,2.3-1.6,3.8-1.6
			c1.3,0,2.3,0.4,3.2,1.2c0.8,0.8,1.2,1.9,1.2,3.2L75.5,24L75.5,24z M75.5,23.3h5.3c0-0.7-0.1-1.2-0.3-1.5c-0.2-0.4-0.5-0.8-0.9-1
			c-0.4-0.2-0.8-0.4-1.3-0.4c-0.7,0-1.3,0.3-1.9,0.8C75.9,21.7,75.6,22.4,75.5,23.3z"/>
		<path class="st0" d="M86.7,26.9c-0.7-0.3-1.2-0.8-1.6-1.4c-0.4-0.6-0.6-1.2-0.6-1.9c0-1.1,0.4-2,1.3-2.8c0.9-0.8,1.9-1.2,3.3-1.2
			c1.1,0,2,0.2,2.8,0.8h2.4c0.4,0,0.6,0,0.6,0s0.1,0,0.1,0.1c0.1,0.1,0.1,0.2,0.1,0.4c0,0.2,0,0.4-0.1,0.4c0,0-0.1,0.1-0.1,0.1
			s-0.3,0-0.6,0h-1.5c0.5,0.6,0.7,1.3,0.7,2.2c0,1-0.4,1.9-1.2,2.6c-0.8,0.7-1.9,1.1-3.3,1.1c-0.6,0-1.2-0.1-1.7-0.2
			c-0.4,0.3-0.6,0.6-0.8,0.8c-0.1,0.2-0.2,0.4-0.2,0.6c0,0.1,0.1,0.3,0.2,0.4c0.1,0.1,0.4,0.2,0.8,0.3c0.2,0,0.8,0.1,1.8,0.1
			c1.7,0,2.8,0.1,3.3,0.2c0.8,0.1,1.4,0.4,1.9,0.8s0.7,1,0.7,1.6c0,0.9-0.4,1.7-1.3,2.5c-1.3,1.2-3,1.7-5.1,1.7c-1.6,0-3-0.3-4.1-1
			c-0.6-0.4-0.9-0.8-0.9-1.2c0-0.2,0.1-0.4,0.1-0.6c0.1-0.3,0.4-0.7,0.9-1.2c0.1-0.1,0.5-0.5,1.3-1.3c-0.4-0.2-0.7-0.5-0.9-0.7
			s-0.3-0.4-0.3-0.7c0-0.3,0.1-0.6,0.4-1C85.3,28.1,85.8,27.5,86.7,26.9z M86.6,30.8c-0.4,0.4-0.7,0.8-0.9,1.1
			c-0.2,0.4-0.3,0.7-0.3,1c0,0.4,0.2,0.7,0.7,1c0.8,0.5,2,0.7,3.6,0.7c1.5,0,2.6-0.2,3.3-0.8c0.7-0.5,1.1-1,1.1-1.6
			c0-0.4-0.2-0.7-0.6-0.9s-1.3-0.3-2.6-0.3C89,31.1,87.6,31,86.6,30.8z M88.9,20.2c-0.6,0-1.1,0.2-1.6,0.7c-0.4,0.5-0.6,1.2-0.6,2.2
			c0,1.3,0.3,2.2,0.8,2.9c0.4,0.5,1,0.8,1.7,0.8c0.6,0,1.2-0.2,1.6-0.7c0.4-0.5,0.6-1.2,0.6-2.1c0-1.3-0.3-2.2-0.9-3
			C90.1,20.4,89.6,20.2,88.9,20.2z"/>
		<path class="st0" d="M99.7,19.6v2.5c1-1.6,1.9-2.5,3-2.5c0.5,0,0.8,0.1,1.1,0.4s0.4,0.6,0.4,0.9c0,0.3-0.1,0.6-0.3,0.8
			c-0.2,0.2-0.5,0.3-0.8,0.3c-0.3,0-0.6-0.1-1-0.4s-0.6-0.4-0.8-0.4c-0.2,0-0.3,0.1-0.5,0.2c-0.4,0.3-0.8,0.9-1.2,1.6v5.2
			c0,0.6,0.1,1.1,0.2,1.4c0.1,0.2,0.3,0.4,0.6,0.5s0.7,0.2,1.2,0.2v0.4h-5.9v-0.4c0.6,0,1-0.1,1.3-0.3c0.2-0.1,0.4-0.3,0.4-0.6
			c0-0.1,0.1-0.5,0.1-1.2v-4.2c0-1.3,0-2-0.1-2.3s-0.2-0.4-0.3-0.5s-0.3-0.2-0.6-0.2c-0.3,0-0.6,0.1-0.9,0.2l-0.1-0.4l3.5-1.3H99.7z
			"/>
		<path class="st0" d="M111.3,29.3c-1.2,0.9-1.9,1.4-2.2,1.5c-0.4,0.2-0.9,0.3-1.4,0.3c-0.8,0-1.4-0.3-2-0.8c-0.5-0.5-0.8-1.2-0.8-2
			c0-0.5,0.1-1,0.4-1.4c0.3-0.5,0.9-1,1.8-1.5s2.3-1.1,4.2-1.7v-0.4c0-1.1-0.2-1.8-0.6-2.2c-0.4-0.4-0.9-0.6-1.6-0.6
			c-0.5,0-0.9,0.1-1.2,0.4c-0.3,0.3-0.5,0.6-0.5,0.9l0,0.7c0,0.4-0.1,0.6-0.3,0.9c-0.2,0.2-0.4,0.3-0.8,0.3c-0.3,0-0.6-0.1-0.8-0.3
			c-0.2-0.2-0.3-0.5-0.3-0.9c0-0.7,0.4-1.3,1.1-1.9c0.7-0.6,1.8-0.9,3.1-0.9c1,0,1.9,0.2,2.5,0.5c0.5,0.2,0.9,0.6,1.1,1.2
			c0.2,0.3,0.2,1,0.2,2.1v3.7c0,1,0,1.7,0.1,1.9s0.1,0.4,0.2,0.5s0.2,0.1,0.3,0.1c0.1,0,0.2,0,0.3-0.1c0.2-0.1,0.5-0.4,1-0.9v0.7
			c-0.9,1.2-1.8,1.8-2.7,1.8c-0.4,0-0.7-0.1-1-0.4C111.4,30.4,111.3,29.9,111.3,29.3z M111.3,28.5v-4.2c-1.3,0.5-2.1,0.8-2.4,1
			c-0.7,0.4-1.1,0.7-1.4,1.1s-0.4,0.8-0.4,1.2c0,0.6,0.2,1,0.5,1.4c0.4,0.4,0.8,0.6,1.2,0.6C109.4,29.7,110.2,29.3,111.3,28.5z"/>
		<path class="st0" d="M115.2,21l3.5-1.4h0.5v2.5c0.6-1,1.2-1.6,1.8-2c0.6-0.4,1.2-0.6,1.9-0.6c1.2,0,2.1,0.4,2.9,1.3
			c0.9,1,1.4,2.4,1.4,4.1c0,1.9-0.6,3.4-1.7,4.7c-0.9,1-2.1,1.5-3.5,1.5c-0.6,0-1.2-0.1-1.6-0.2c-0.3-0.1-0.7-0.4-1.1-0.7v3.3
			c0,0.8,0.1,1.2,0.1,1.4c0.1,0.2,0.3,0.4,0.5,0.5s0.7,0.2,1.3,0.2V36h-6v-0.4h0.3c0.5,0,0.8-0.1,1.2-0.2c0.2-0.1,0.3-0.2,0.4-0.4
			c0.1-0.2,0.1-0.7,0.1-1.5V23.1c0-0.7,0-1.2-0.1-1.4s-0.2-0.3-0.3-0.4s-0.3-0.1-0.6-0.1c-0.2,0-0.5,0.1-0.8,0.2L115.2,21z
			 M119.2,22.9V27c0,0.9,0,1.5,0.1,1.7c0.1,0.5,0.4,0.9,0.9,1.2c0.5,0.4,1,0.5,1.7,0.5c0.8,0,1.5-0.3,2-0.9c0.7-0.8,1-2,1-3.4
			c0-1.7-0.4-3-1.2-3.9c-0.5-0.6-1.2-0.9-1.9-0.9c-0.4,0-0.8,0.1-1.2,0.3C120.4,21.8,119.9,22.2,119.2,22.9z"/>
		<path class="st0" d="M131.5,13.9v8c0.9-1,1.7-1.6,2.2-1.9c0.5-0.3,1.1-0.4,1.6-0.4c0.6,0,1.2,0.2,1.7,0.5c0.5,0.3,0.8,0.9,1,1.6
			c0.2,0.5,0.2,1.4,0.2,2.8v3.9c0,0.7,0.1,1.2,0.2,1.4c0.1,0.2,0.2,0.3,0.4,0.5s0.6,0.2,1.1,0.2v0.4h-5.6v-0.4h0.3
			c0.5,0,0.9-0.1,1.1-0.2c0.2-0.2,0.4-0.4,0.4-0.7c0-0.1,0-0.5,0-1.1v-3.9c0-1.2-0.1-2-0.2-2.4c-0.1-0.4-0.3-0.6-0.6-0.8
			s-0.6-0.3-1-0.3c-0.4,0-0.8,0.1-1.3,0.3s-1,0.6-1.6,1.2v5.8c0,0.8,0,1.2,0.1,1.4c0.1,0.2,0.2,0.3,0.5,0.5c0.2,0.1,0.6,0.2,1.2,0.2
			v0.4h-5.7v-0.4c0.5,0,0.9-0.1,1.2-0.2c0.2-0.1,0.3-0.2,0.4-0.5s0.1-0.7,0.1-1.4v-9.9c0-1.2,0-2-0.1-2.3c-0.1-0.3-0.2-0.5-0.3-0.6
			c-0.1-0.1-0.3-0.1-0.5-0.1c-0.2,0-0.5,0.1-0.8,0.2l-0.2-0.4l3.4-1.3C130.9,13.9,131.5,13.9,131.5,13.9z"/>
		<path class="st0" d="M139.5,19.9h5.4v0.4h-0.3c-0.4,0-0.7,0.1-0.9,0.2s-0.3,0.4-0.3,0.6c0,0.3,0.1,0.7,0.4,1.3l2.8,5.5l2.6-6
			c0.1-0.3,0.2-0.6,0.2-1c0-0.1,0-0.2-0.1-0.3c-0.1-0.1-0.2-0.2-0.3-0.2s-0.4-0.1-0.8-0.1v-0.4h3.7v0.4c-0.3,0-0.6,0.1-0.7,0.2
			c-0.2,0.1-0.4,0.3-0.6,0.5c-0.1,0.1-0.2,0.4-0.4,0.9l-4.7,10.9c-0.4,1.1-1,1.8-1.8,2.4c-0.7,0.5-1.4,0.8-2.1,0.8
			c-0.5,0-0.9-0.1-1.2-0.4c-0.3-0.3-0.5-0.6-0.5-0.9c0-0.3,0.1-0.6,0.3-0.8s0.6-0.3,0.9-0.3c0.3,0,0.6,0.1,1.1,0.3
			c0.3,0.1,0.5,0.2,0.6,0.2c0.2,0,0.5-0.1,0.8-0.4s0.6-0.7,0.9-1.4l0.8-1.9l-4.1-8.2c-0.1-0.2-0.3-0.5-0.6-0.9
			c-0.2-0.3-0.4-0.5-0.5-0.6c-0.2-0.1-0.5-0.2-0.9-0.3L139.5,19.9L139.5,19.9z"/>
	</g>
</g>
</svg>
